<svg xmlns="http://www.w3.org/2000/svg" xmlns:xlink="http://www.w3.org/1999/xlink" width="2000" zoomAndPan="magnify" viewBox="0 0 1500 1499.999933" height="2000" preserveAspectRatio="xMidYMid meet" version="1.0"><defs><g/><clipPath id="ce0d622305"><path d="M 0 4.503906 L 1500 4.503906 L 1500 1500 L 0 1500 Z M 0 4.503906 " clip-rule="nonzero"/></clipPath><clipPath id="c340236d45"><path d="M 750 4.503906 C 335.785156 4.503906 0 340.289062 0 754.503906 C 0 1168.714844 335.785156 1504.503906 750 1504.503906 C 1164.214844 1504.503906 1500 1168.714844 1500 754.503906 C 1500 340.289062 1164.214844 4.503906 750 4.503906 Z M 750 4.503906 " clip-rule="nonzero"/></clipPath><clipPath id="955e1735e6"><path d="M 0 0.503906 L 1500 0.503906 L 1500 1496 L 0 1496 Z M 0 0.503906 " clip-rule="nonzero"/></clipPath><clipPath id="351b6bff2e"><path d="M 750 0.503906 C 335.785156 0.503906 0 336.289062 0 750.503906 C 0 1164.714844 335.785156 1500.503906 750 1500.503906 C 1164.214844 1500.503906 1500 1164.714844 1500 750.503906 C 1500 336.289062 1164.214844 0.503906 750 0.503906 Z M 750 0.503906 " clip-rule="nonzero"/></clipPath><clipPath id="f3a347e786"><rect x="0" width="1500" y="0" height="1496"/></clipPath><clipPath id="3a20671eff"><rect x="0" width="1182" y="0" height="761"/></clipPath></defs><g clip-path="url(#ce0d622305)"><g clip-path="url(#c340236d45)"><g transform="matrix(1, 0, 0, 1, 0, 4)"><g clip-path="url(#f3a347e786)"><g clip-path="url(#955e1735e6)"><g clip-path="url(#351b6bff2e)"><path fill="#545454" d="M 0 0.503906 L 1500 0.503906 L 1500 1500.503906 L 0 1500.503906 Z M 0 0.503906 " fill-opacity="1" fill-rule="nonzero"/></g></g></g></g></g></g><g transform="matrix(1, 0, 0, 1, 160, 374)"><g clip-path="url(#3a20671eff)"><g fill="#ffffff" fill-opacity="1"><g transform="translate(0.798467, 595.882627)"><g><path d="M 130.453125 -398.15625 L 130.453125 -65.90625 L 309.375 -65.90625 L 309.375 0 L 51.75 0 L 51.75 -398.15625 Z M 130.453125 -398.15625 "/></g></g><g transform="translate(323.245703, 595.882627)"><g><path d="M 123.921875 0 L 51.75 0 L 51.75 -398.15625 L 154.6875 -398.15625 L 255.453125 -105.390625 L 261.171875 -105.390625 L 361.390625 -398.15625 L 461.890625 -398.15625 L 461.890625 0 L 387.265625 0 L 387.265625 -263.078125 L 380.453125 -264.171875 L 288.40625 0 L 222.765625 0 L 130.71875 -264.171875 L 123.921875 -263.078125 Z M 123.921875 0 "/></g></g><g transform="translate(837.145987, 595.882627)"><g><path d="M 176.46875 5.71875 C 148.875 5.71875 124.316406 2.316406 102.796875 -4.484375 C 81.285156 -11.296875 63.359375 -20.238281 49.015625 -31.3125 C 34.671875 -42.394531 23.6875 -54.5625 16.0625 -67.8125 L 59.375 -120.640625 L 66.171875 -120.640625 C 78.160156 -102.847656 93.367188 -88.6875 111.796875 -78.15625 C 130.222656 -67.625 151.78125 -62.359375 176.46875 -62.359375 C 197.53125 -62.359375 213.414062 -66.804688 224.125 -75.703125 C 234.84375 -84.609375 240.203125 -96.863281 240.203125 -112.46875 C 240.203125 -121.914062 238.476562 -129.816406 235.03125 -136.171875 C 231.582031 -142.523438 225.863281 -147.96875 217.875 -152.5 C 209.882812 -157.039062 199.082031 -160.945312 185.46875 -164.21875 L 134.265625 -175.9375 C 98.492188 -184.101562 71.847656 -197.671875 54.328125 -216.640625 C 36.804688 -235.617188 28.046875 -260.265625 28.046875 -290.578125 C 28.046875 -313.097656 33.675781 -332.890625 44.9375 -349.953125 C 56.195312 -367.023438 72.582031 -380.28125 94.09375 -389.71875 C 115.601562 -399.15625 141.335938 -403.875 171.296875 -403.875 C 201.984375 -403.875 228.265625 -399.832031 250.140625 -391.75 C 272.015625 -383.675781 290.488281 -371.285156 305.5625 -354.578125 L 266.625 -301.203125 L 259.8125 -301.203125 C 248.550781 -313.003906 235.660156 -321.851562 221.140625 -327.75 C 206.617188 -333.65625 190.003906 -336.609375 171.296875 -336.609375 C 149.691406 -336.609375 133.257812 -332.796875 122 -325.171875 C 110.75 -317.546875 105.125 -307.015625 105.125 -293.578125 C 105.125 -281.054688 109.070312 -271.070312 116.96875 -263.625 C 124.863281 -256.175781 138.523438 -250.363281 157.953125 -246.1875 L 210.25 -235.296875 C 248.914062 -227.128906 276.960938 -213.285156 294.390625 -193.765625 C 311.828125 -174.253906 320.546875 -148.789062 320.546875 -117.375 C 320.546875 -92.5 315.1875 -70.847656 304.46875 -52.421875 C 293.757812 -33.992188 277.601562 -19.695312 256 -9.53125 C 234.394531 0.632812 207.882812 5.71875 176.46875 5.71875 Z M 176.46875 5.71875 "/></g></g></g></g></g></svg>